<mxfile host="app.diagrams.net" agent="Mozilla/5.0 (Windows NT 10.0; Win64; x64) AppleWebKit/537.36 (KHTML, like Gecko) Chrome/138.0.0.0 Safari/537.36" version="27.2.0">
  <diagram name="Page-1" id="MK4s8OTHxNGH-E32pCD8">
    <mxGraphModel>
      <root>
        <mxCell id="0" />
        <mxCell id="1" parent="0" />
        <mxCell id="2" value="DFD" style="whiteSpace=wrap;strokeWidth=2;verticalAlign=top;" vertex="1" parent="1">
          <mxGeometry x="8" y="8" width="1275" height="632" as="geometry" />
        </mxCell>
        <mxCell id="3" value="Ticket Management System" style="shape=cylinder3;boundedLbl=1;backgroundOutline=1;size=10;strokeWidth=2;whiteSpace=wrap;" vertex="1" parent="2">
          <mxGeometry x="375" y="215" width="210" height="86" as="geometry" />
        </mxCell>
        <mxCell id="4" value="User" style="whiteSpace=wrap;strokeWidth=2;" vertex="1" parent="2">
          <mxGeometry x="273" y="398" width="92" height="54" as="geometry" />
        </mxCell>
        <mxCell id="5" value="Manager" style="whiteSpace=wrap;strokeWidth=2;" vertex="1" parent="2">
          <mxGeometry x="969" y="46" width="120" height="54" as="geometry" />
        </mxCell>
        <mxCell id="6" value="Admin" style="whiteSpace=wrap;strokeWidth=2;" vertex="1" parent="2">
          <mxGeometry x="626" y="398" width="105" height="54" as="geometry" />
        </mxCell>
        <mxCell id="7" value="Ticket DB" style="whiteSpace=wrap;strokeWidth=2;" vertex="1" parent="2">
          <mxGeometry x="858" y="398" width="128" height="54" as="geometry" />
        </mxCell>
        <mxCell id="8" value="Feedback DB" style="whiteSpace=wrap;strokeWidth=2;" vertex="1" parent="2">
          <mxGeometry x="1097" y="398" width="152" height="54" as="geometry" />
        </mxCell>
        <mxCell id="9" value="" style="whiteSpace=wrap;strokeWidth=2;" vertex="1" parent="2">
          <mxGeometry x="43" y="425" as="geometry" />
        </mxCell>
        <mxCell id="10" value="" style="whiteSpace=wrap;strokeWidth=2;" vertex="1" parent="2">
          <mxGeometry x="61" y="527" as="geometry" />
        </mxCell>
        <mxCell id="11" value="" style="whiteSpace=wrap;strokeWidth=2;" vertex="1" parent="2">
          <mxGeometry x="161" y="527" as="geometry" />
        </mxCell>
        <mxCell id="12" value="" style="whiteSpace=wrap;strokeWidth=2;" vertex="1" parent="2">
          <mxGeometry x="319" y="602" as="geometry" />
        </mxCell>
        <mxCell id="13" value="" style="whiteSpace=wrap;strokeWidth=2;" vertex="1" parent="2">
          <mxGeometry x="1029" y="257" as="geometry" />
        </mxCell>
        <mxCell id="14" value="" style="whiteSpace=wrap;strokeWidth=2;" vertex="1" parent="2">
          <mxGeometry x="1046" y="425" as="geometry" />
        </mxCell>
        <mxCell id="15" value="" style="whiteSpace=wrap;strokeWidth=2;" vertex="1" parent="2">
          <mxGeometry x="497" y="527" as="geometry" />
        </mxCell>
        <mxCell id="16" value="" style="whiteSpace=wrap;strokeWidth=2;" vertex="1" parent="2">
          <mxGeometry x="678" y="602" as="geometry" />
        </mxCell>
        <mxCell id="17" value="" style="whiteSpace=wrap;strokeWidth=2;" vertex="1" parent="2">
          <mxGeometry x="848" y="527" as="geometry" />
        </mxCell>
        <mxCell id="18" value="" style="whiteSpace=wrap;strokeWidth=2;" vertex="1" parent="2">
          <mxGeometry x="922" y="602" as="geometry" />
        </mxCell>
        <mxCell id="19" value="" style="whiteSpace=wrap;strokeWidth=2;" vertex="1" parent="2">
          <mxGeometry x="1059" y="527" as="geometry" />
        </mxCell>
        <mxCell id="20" value="" style="whiteSpace=wrap;strokeWidth=2;" vertex="1" parent="2">
          <mxGeometry x="1172" y="602" as="geometry" />
        </mxCell>
        <mxCell id="21" value="Submit Ticket Request" style="curved=1;startArrow=none;endArrow=block;exitX=0.79;exitY=0;entryX=0.31;entryY=0.99;" edge="1" parent="2" source="4" target="3">
          <mxGeometry relative="1" as="geometry">
            <Array as="points">
              <mxPoint x="393" y="349" />
            </Array>
          </mxGeometry>
        </mxCell>
        <mxCell id="22" value="Assign / Resolve / Close Ticket" style="curved=1;startArrow=none;endArrow=block;exitX=0;exitY=0.66;entryX=0.5;entryY=-0.01;" edge="1" parent="2" source="5" target="3">
          <mxGeometry relative="1" as="geometry">
            <Array as="points">
              <mxPoint x="480" y="157" />
            </Array>
          </mxGeometry>
        </mxCell>
        <mxCell id="23" value="Full Access Operations" style="curved=1;startArrow=none;endArrow=block;exitX=0.71;exitY=0;entryX=1;entryY=0.93;" edge="1" parent="2" source="6" target="3">
          <mxGeometry relative="1" as="geometry">
            <Array as="points">
              <mxPoint x="740" y="349" />
            </Array>
          </mxGeometry>
        </mxCell>
        <mxCell id="24" value="Assigned Ticket to Resolve" style="curved=1;startArrow=none;endArrow=block;exitX=0;exitY=0.89;entryX=0.02;entryY=0;" edge="1" parent="2" source="3" target="4">
          <mxGeometry relative="1" as="geometry">
            <Array as="points">
              <mxPoint x="195" y="349" />
            </Array>
          </mxGeometry>
        </mxCell>
        <mxCell id="25" value="Store / Update Ticket" style="curved=1;startArrow=none;endArrow=block;exitX=1;exitY=0.75;entryX=0.5;entryY=0;" edge="1" parent="2" source="3" target="7">
          <mxGeometry relative="1" as="geometry">
            <Array as="points">
              <mxPoint x="922" y="349" />
            </Array>
          </mxGeometry>
        </mxCell>
        <mxCell id="26" value="Store Feedback" style="curved=1;startArrow=none;endArrow=block;exitX=1;exitY=0.66;entryX=0.5;entryY=0;" edge="1" parent="2" source="3" target="8">
          <mxGeometry relative="1" as="geometry">
            <Array as="points">
              <mxPoint x="1172" y="349" />
            </Array>
          </mxGeometry>
        </mxCell>
        <mxCell id="27" value="Reports &amp; Analytics" style="curved=1;startArrow=none;endArrow=block;exitX=0.69;exitY=0.99;entryX=0.12;entryY=0;" edge="1" parent="2" source="3" target="6">
          <mxGeometry relative="1" as="geometry">
            <Array as="points">
              <mxPoint x="566" y="349" />
            </Array>
          </mxGeometry>
        </mxCell>
        <mxCell id="28" value="" style="curved=1;startArrow=none;endArrow=none;exitX=0;exitY=0.75;entryX=Infinity;entryY=-Infinity;" edge="1" parent="2" source="3" target="9">
          <mxGeometry relative="1" as="geometry">
            <Array as="points">
              <mxPoint x="43" y="349" />
            </Array>
          </mxGeometry>
        </mxCell>
        <mxCell id="29" value="" style="curved=1;startArrow=none;endArrow=none;exitX=Infinity;exitY=-Infinity;entryX=-Infinity;entryY=-Infinity;" edge="1" parent="2" source="9" target="10">
          <mxGeometry relative="1" as="geometry">
            <Array as="points">
              <mxPoint x="43" y="489" />
            </Array>
          </mxGeometry>
        </mxCell>
        <mxCell id="30" value="" style="curved=1;startArrow=none;endArrow=block;exitX=-Infinity;exitY=-Infinity;entryX=0;entryY=0.77;" edge="1" parent="2" source="10" target="3">
          <mxGeometry relative="1" as="geometry">
            <Array as="points">
              <mxPoint x="78" y="489" />
              <mxPoint x="78" y="349" />
            </Array>
          </mxGeometry>
        </mxCell>
        <mxCell id="31" value="" style="curved=1;startArrow=none;endArrow=none;exitX=0;exitY=0.85;entryX=Infinity;entryY=-Infinity;" edge="1" parent="2" source="4" target="11">
          <mxGeometry relative="1" as="geometry">
            <Array as="points">
              <mxPoint x="161" y="489" />
            </Array>
          </mxGeometry>
        </mxCell>
        <mxCell id="32" value="" style="curved=1;startArrow=none;endArrow=none;exitX=Infinity;exitY=Infinity;entryX=-Infinity;entryY=Infinity;" edge="1" parent="2" source="11" target="12">
          <mxGeometry relative="1" as="geometry">
            <Array as="points">
              <mxPoint x="161" y="565" />
            </Array>
          </mxGeometry>
        </mxCell>
        <mxCell id="33" value="" style="curved=1;startArrow=none;endArrow=block;exitX=Infinity;exitY=Infinity;entryX=1;entryY=0.88;" edge="1" parent="2" source="12" target="4">
          <mxGeometry relative="1" as="geometry">
            <Array as="points">
              <mxPoint x="462" y="565" />
              <mxPoint x="462" y="489" />
            </Array>
          </mxGeometry>
        </mxCell>
        <mxCell id="34" value="" style="curved=1;startArrow=none;endArrow=none;exitX=0.5;exitY=0.99;entryX=-Infinity;entryY=Infinity;" edge="1" parent="2" source="5" target="13">
          <mxGeometry relative="1" as="geometry">
            <Array as="points" />
          </mxGeometry>
        </mxCell>
        <mxCell id="35" value="" style="curved=1;startArrow=none;endArrow=none;exitX=-Infinity;exitY=Infinity;entryX=Infinity;entryY=-Infinity;" edge="1" parent="2" source="13" target="14">
          <mxGeometry relative="1" as="geometry">
            <Array as="points">
              <mxPoint x="1029" y="349" />
            </Array>
          </mxGeometry>
        </mxCell>
        <mxCell id="36" value="" style="curved=1;startArrow=none;endArrow=block;exitX=Infinity;exitY=-Infinity;entryX=0.61;entryY=0.99;" edge="1" parent="2" source="14" target="5">
          <mxGeometry relative="1" as="geometry">
            <Array as="points">
              <mxPoint x="1071" y="349" />
              <mxPoint x="1071" y="157" />
            </Array>
          </mxGeometry>
        </mxCell>
        <mxCell id="37" value="" style="curved=1;startArrow=none;endArrow=none;exitX=0;exitY=0.85;entryX=Infinity;entryY=-Infinity;" edge="1" parent="2" source="6" target="15">
          <mxGeometry relative="1" as="geometry">
            <Array as="points">
              <mxPoint x="497" y="489" />
            </Array>
          </mxGeometry>
        </mxCell>
        <mxCell id="38" value="" style="curved=1;startArrow=none;endArrow=none;exitX=Infinity;exitY=Infinity;entryX=Infinity;entryY=Infinity;" edge="1" parent="2" source="15" target="16">
          <mxGeometry relative="1" as="geometry">
            <Array as="points">
              <mxPoint x="497" y="565" />
            </Array>
          </mxGeometry>
        </mxCell>
        <mxCell id="39" value="" style="curved=1;startArrow=none;endArrow=block;exitX=Infinity;exitY=Infinity;entryX=1;entryY=0.96;" edge="1" parent="2" source="16" target="6">
          <mxGeometry relative="1" as="geometry">
            <Array as="points">
              <mxPoint x="813" y="565" />
              <mxPoint x="813" y="489" />
            </Array>
          </mxGeometry>
        </mxCell>
        <mxCell id="40" value="" style="curved=1;startArrow=none;endArrow=none;exitX=0.26;exitY=1;entryX=Infinity;entryY=-Infinity;" edge="1" parent="2" source="7" target="17">
          <mxGeometry relative="1" as="geometry">
            <Array as="points">
              <mxPoint x="848" y="489" />
            </Array>
          </mxGeometry>
        </mxCell>
        <mxCell id="41" value="" style="curved=1;startArrow=none;endArrow=none;exitX=Infinity;exitY=Infinity;entryX=-Infinity;entryY=Infinity;" edge="1" parent="2" source="17" target="18">
          <mxGeometry relative="1" as="geometry">
            <Array as="points">
              <mxPoint x="848" y="565" />
            </Array>
          </mxGeometry>
        </mxCell>
        <mxCell id="42" value="" style="curved=1;startArrow=none;endArrow=block;exitX=-Infinity;exitY=Infinity;entryX=0.83;entryY=1;" edge="1" parent="2" source="18" target="7">
          <mxGeometry relative="1" as="geometry">
            <Array as="points">
              <mxPoint x="1024" y="565" />
              <mxPoint x="1024" y="489" />
            </Array>
          </mxGeometry>
        </mxCell>
        <mxCell id="43" value="" style="curved=1;startArrow=none;endArrow=none;exitX=0.18;exitY=1;entryX=Infinity;entryY=-Infinity;" edge="1" parent="2" source="8" target="19">
          <mxGeometry relative="1" as="geometry">
            <Array as="points">
              <mxPoint x="1059" y="489" />
            </Array>
          </mxGeometry>
        </mxCell>
        <mxCell id="44" value="" style="curved=1;startArrow=none;endArrow=none;exitX=Infinity;exitY=Infinity;entryX=Infinity;entryY=Infinity;" edge="1" parent="2" source="19" target="20">
          <mxGeometry relative="1" as="geometry">
            <Array as="points">
              <mxPoint x="1059" y="565" />
            </Array>
          </mxGeometry>
        </mxCell>
        <mxCell id="45" value="" style="curved=1;startArrow=none;endArrow=block;exitX=Infinity;exitY=Infinity;entryX=0.62;entryY=1;" edge="1" parent="2" source="20" target="8">
          <mxGeometry relative="1" as="geometry">
            <Array as="points">
              <mxPoint x="1218" y="565" />
              <mxPoint x="1218" y="489" />
            </Array>
          </mxGeometry>
        </mxCell>
        <mxCell id="46" value="Diagram Title: Level 0 DFD – Ticket Lifecycle (SMS System)" style="whiteSpace=wrap;strokeWidth=2;" vertex="1" parent="1">
          <mxGeometry x="1333" y="273" width="260" height="102" as="geometry" />
        </mxCell>
      </root>
    </mxGraphModel>
  </diagram>
</mxfile>
